<svg xmlns="http://www.w3.org/2000/svg" viewBox="0 0 224 166"><defs><style>.cls-1{fill:#256ffd;}.cls-2{fill:#00c72b;}</style></defs><title>ChatBox Logo</title><g id="Capa_2" data-name="Capa 2"><g id="Capa_1-2" data-name="Capa 1"><path class="cls-1" d="M161,0H20A20,20,0,0,0,0,20V96a20,20,0,0,0,20,20h6l24,24,24-24h87a20,20,0,0,0,20-20V20A20,20,0,0,0,161,0Z"/><path class="cls-2" d="M105.7,59H209.3c8.12,0,14.7,6.84,14.7,15.29v58.08c0,8.44-6.58,15.29-14.7,15.29h-4.4L187.26,166l-17.64-18.34H105.7c-8.12,0-14.7-6.85-14.7-15.29V74.29C91,65.84,97.58,59,105.7,59Z"/></g></g></svg>